<?xml version="1.0" encoding="UTF-8"?>
<!DOCTYPE svg PUBLIC "-//W3C//DTD SVG 1.1//EN" "http://www.w3.org/Graphics/SVG/1.1/DTD/svg11.dtd">
<svg xmlns="http://www.w3.org/2000/svg" version="1.1" width="1296px" height="1321px" style="shape-rendering:geometricPrecision; text-rendering:geometricPrecision; image-rendering:optimizeQuality; fill-rule:evenodd; clip-rule:evenodd" xmlns:xlink="http://www.w3.org/1999/xlink">
<g><path style="opacity:0.707" fill="#ffffff" d="M 639.5,204.5 C 662.927,203.97 685.927,206.803 708.5,213C 729.715,211.232 736.548,220.399 729,240.5C 712.47,271.214 694.137,300.881 674,329.5C 673.667,331.5 673.333,333.5 673,335.5C 667.667,344.833 662.333,354.167 657,363.5C 644.443,372.377 635.443,369.71 630,355.5C 608.079,322.669 587.412,289.002 568,254.5C 563.612,244.951 560.779,234.951 559.5,224.5C 560.824,219.004 564.157,215.17 569.5,213C 592.615,207.118 615.949,204.285 639.5,204.5 Z"/></g>
<g><path style="opacity:0.712" fill="#ffffff" d="M 420.5,298.5 C 428.215,297.571 434.715,299.904 440,305.5C 453.686,328.868 466.352,352.868 478,377.5C 495.917,399.343 506.75,424.343 510.5,452.5C 497.51,453.81 484.51,453.81 471.5,452.5C 428.495,457.833 385.495,457.833 342.5,452.5C 342.077,402.387 360.077,360.387 396.5,326.5C 397.441,322.616 398.941,318.949 401,315.5C 407.944,310.197 414.444,304.53 420.5,298.5 Z"/></g>
<g><path style="opacity:0.697" fill="#ffffff" d="M 860.5,301.5 C 868.675,300.447 875.675,302.78 881.5,308.5C 915.748,344.638 939.415,386.972 952.5,435.5C 950.967,439.882 949.467,444.215 948,448.5C 946.062,451.106 943.562,452.939 940.5,454C 888.5,455.994 836.5,455.994 784.5,454C 779.785,450.947 777.118,446.613 776.5,441C 786.479,418.537 798.646,397.371 813,377.5C 824.673,352.652 837.506,328.485 851.5,305C 854.598,303.772 857.598,302.606 860.5,301.5 Z"/></g>
<g><path style="opacity:0.697" fill="#ffffff" d="M 410.5,592.5 C 444.088,591.514 477.421,593.847 510.5,599.5C 512.99,605.415 513.157,611.415 511,617.5C 502.519,633.634 492.853,648.967 482,663.5C 470.625,690.605 455.958,715.605 438,738.5C 431.441,744.936 424.274,745.769 416.5,741C 401.233,731.734 389.4,719.234 381,703.5C 380.667,701.5 380.333,699.5 380,697.5C 368.064,685.625 359.731,671.625 355,655.5C 346.146,641.781 340.646,626.781 338.5,610.5C 338.482,604.365 341.148,599.865 346.5,597C 367.968,595.157 389.301,593.657 410.5,592.5 Z"/></g>
<g><path style="opacity:0.698" fill="#ffffff" d="M 798.5,592.5 C 801.638,594.818 805.138,596.485 809,597.5C 855.201,590.441 901.367,590.941 947.5,599C 946.597,639.055 932.764,673.888 906,703.5C 898.703,721.798 886.203,735.298 868.5,744C 855.778,747.279 848.278,742.446 846,729.5C 831.814,709.633 818.814,688.966 807,667.5C 801.783,657.067 797.117,646.401 793,635.5C 769.364,617.578 771.198,603.245 798.5,592.5 Z"/></g>
<g><path style="opacity:0.728" fill="#ffffff" d="M 638.5,677.5 C 647.044,675.858 653.877,678.524 659,685.5C 663.641,693.759 667.308,702.425 670,711.5C 692.698,745.748 713.198,781.414 731.5,818.5C 729.851,823.316 727.184,827.483 723.5,831C 681.602,840.098 639.268,842.765 596.5,839C 584.421,837.252 573.087,833.418 562.5,827.5C 560.718,809.015 566.551,793.348 580,780.5C 591.317,757.194 603.65,734.527 617,712.5C 621.606,703.622 625.939,694.622 630,685.5C 632.729,682.601 635.562,679.934 638.5,677.5 Z"/></g>
</svg>
